<svg width="1158" height="1169" viewBox="0 0 1158 1169" fill="none" xmlns="http://www.w3.org/2000/svg">
<g filter="url(#filter0_d_1_3)">
<path d="M955 371L767 459L579 370L767 281L955 371Z" fill="#028918"/>
<path d="M767 281L579 370L391 280L579 191L767 281Z" fill="#3D86F4"/>
<path d="M579 191L391 280L203 190L391 101L579 191Z" fill="#FF3E3E"/>
<path d="M391 459L203 371V569L391 659V459Z" fill="#FFEB34"/>
<path d="M15 479V679L203 769V569L15 479Z" fill="#FF3E3E"/>
<path d="M1143 882V682L955 771V971L1143 882Z" fill="#FF3434"/>
<path d="M579 549L767 459L579 370L391 459L579 549Z" fill="#FFEB34"/>
<path d="M203 371L15 279V479L203 569V371Z" fill="#028918"/>
<path d="M15 679V879L203 969V769L15 679Z" fill="#FFEB34"/>
<path d="M767 1060L955 971V771L767 860V1060Z" fill="#FFEB34"/>
<path d="M579 191L767 102L579 12L391 101L579 191Z" fill="#FFEB34"/>
<path d="M579 949V1149L767 1060V860L579 949Z" fill="#FF3E3E"/>
<path d="M767 459L579 549V749L767 660V459Z" fill="#028918"/>
<path d="M579 549L391 459V659L579 749V549Z" fill="#3D86F4"/>
<path d="M955 571L767 660V860L955 771V571Z" fill="#3D86F4"/>
<path d="M955 371L767 459V660L955 571V371Z" fill="#FF3434"/>
<path d="M203 371L391 280L203 190L15 279L203 371Z" fill="#3D86F4"/>
<path d="M391 459L579 370L391 280L203 371L391 459Z" fill="#FF9029"/>
<path d="M1143 682V482L955 571V771L1143 682Z" fill="#028918"/>
<path d="M579 191L767 281L955 192L767 102L579 191Z" fill="#028918"/>
<path d="M579 949V749L391 659V859L579 949Z" fill="#FF9029"/>
<path d="M203 969L391 1059V859L203 769V969Z" fill="#3D86F4"/>
<path d="M1143 282L955 371V571L1143 482V282Z" fill="#FF9029"/>
<path d="M767 281L955 371L1143 282L955 192L767 281Z" fill="white"/>
<path d="M579 749V949L767 860V660L579 749Z" fill="white"/>
<path d="M579 1149V949L391 859V1059L579 1149Z" fill="white"/>
<path d="M391 659L203 569V769L391 859V659Z" fill="white"/>
<path d="M579 549L767 459M579 549L391 459M579 549V749M579 549L203 371M767 459L579 370M767 459L955 371M767 459V660M391 459L579 370M391 459L203 371M391 459V859M391 459V659M579 370L767 281M579 370L391 280M955 371L767 281M955 371L1143 282M955 371V571M767 281L579 191M767 281L955 192M203 371L391 280M203 371L15 279M203 371V569M391 280L579 191M391 280L203 190M579 191L767 102M579 191L391 101M1143 282L955 192M1143 282V482M955 192L767 102M767 102L579 12L391 101M391 101L203 190M203 190L15 279M15 279V479M579 749V949M579 749L391 659M579 749L767 660M579 949V1149M579 949L391 859M579 949L767 860M579 1149L391 1059M579 1149L767 1060M1143 482V682M1143 482L955 571M1143 682V882L955 971M1143 682L955 771M15 479V679M15 479L203 569M15 679V879L203 969M15 679L391 859M15 679L203 769M203 969L391 1059M203 969V769M391 1059V859M767 1060L955 971M767 1060V860M955 971V771M203 569L391 659M203 569V769M391 659V859M391 859L203 769M767 660L955 571M767 660V860M955 571V771M955 771L767 860" stroke="black" stroke-width="21"/>
</g>
<defs>
<filter id="filter0_d_1_3" x="0.5" y="0.370911" width="1157" height="1168.26" filterUnits="userSpaceOnUse" color-interpolation-filters="sRGB">
<feFlood flood-opacity="0" result="BackgroundImageFix"/>
<feColorMatrix in="SourceAlpha" type="matrix" values="0 0 0 0 0 0 0 0 0 0 0 0 0 0 0 0 0 0 127 0" result="hardAlpha"/>
<feOffset dy="4"/>
<feGaussianBlur stdDeviation="2"/>
<feComposite in2="hardAlpha" operator="out"/>
<feColorMatrix type="matrix" values="0 0 0 0 0 0 0 0 0 0 0 0 0 0 0 0 0 0 0.25 0"/>
<feBlend mode="normal" in2="BackgroundImageFix" result="effect1_dropShadow_1_3"/>
<feBlend mode="normal" in="SourceGraphic" in2="effect1_dropShadow_1_3" result="shape"/>
</filter>
</defs>
</svg>
